<svg width="116" height="115" viewBox="0 0 116 115" fill="none" xmlns="http://www.w3.org/2000/svg">
<rect width="116" height="115" fill="transparent"/>
<path d="M79.528 52.616C90.56 52.616 95.936 47.128 95.936 40.632C95.936 26.184 73.032 31.336 73.032 23.832C73.032 21.256 75.216 19.128 80.76 19.128C84.176 19.128 87.984 20.136 91.568 22.208L94.312 15.6C90.672 13.36 85.688 12.184 80.816 12.184C69.728 12.184 64.464 17.672 64.464 24.224C64.464 38.784 87.368 33.632 87.368 41.248C87.368 43.768 85.072 45.672 79.528 45.672C74.824 45.672 69.84 43.936 66.592 41.528L63.68 48.08C67.096 50.768 73.312 52.616 79.528 52.616Z" fill="white"/>
<path d="M44.504 52V19.912H57.16V12.8H23.224V19.912H35.88V52H44.504Z" fill="white"/>
<path d="M64.816 85.48H94.16V78.704H64.816V85.48ZM64.816 69.8H94.16V62.8H64.816V69.8ZM64.816 95H94.16V102H64.816V95Z" fill="white"/>
<path d="M49.408 89.344C54.56 87.16 57.528 82.848 57.528 76.968C57.528 68.176 51.032 62.8 40.56 62.8H23.816V69.912H40.112C45.824 69.912 48.792 72.488 48.792 76.968C48.792 81.392 45.824 84.024 40.112 84.024H23.816V102H32.44V90.968H40.56C40.784 90.968 41.008 90.968 41.232 90.968L48.904 102H58.256L49.408 89.344Z" fill="white"/>
</svg>
